<svg xmlns="http://www.w3.org/2000/svg" width="128" height="128" viewBox="0 0 128 128"><path d="M60.2,62.116H51.817a4.277,4.277,0,0,1,4.308-3.42A3.868,3.868,0,0,1,60.2,62.116Zm47.774-3.058a4.785,4.785,0,1,0,0,9.569,5.214,5.214,0,0,0,4.374-2.335V61.426A5.121,5.121,0,0,0,107.976,59.058ZM128,37.391V89.868l-.006,2.677c-.006,1.283-.028,2.577-.056,3.865a55.909,55.909,0,0,1-.742,8.405,28.269,28.269,0,0,1-2.632,7.992,26.882,26.882,0,0,1-11.75,11.751,28.33,28.33,0,0,1-7.992,2.638,55.824,55.824,0,0,1-8.41.736q-1.929.049-3.859.056l-4.59.011H40.036l-4.584-.006q-1.933-.01-3.865-.061a55.814,55.814,0,0,1-8.4-.736,28.347,28.347,0,0,1-7.992-2.638,26.882,26.882,0,0,1-11.75-11.746,28.362,28.362,0,0,1-2.632-8A56.155,56.155,0,0,1,.067,96.41C.033,95.122.011,93.833.011,92.545,0,91.017,0,89.488,0,87.96V40.04c0-1.534,0-3.056.011-4.59q.007-1.933.056-3.865a55.051,55.051,0,0,1,.742-8.4,28.3,28.3,0,0,1,2.632-8A26.882,26.882,0,0,1,15.2,3.436,28.453,28.453,0,0,1,23.189.8a56.547,56.547,0,0,1,8.4-.736Q33.525.013,35.458.006L40.047,0H87.964l4.59.006q1.93.007,3.859.056a55.838,55.838,0,0,1,8.41.742,28.505,28.505,0,0,1,7.992,2.633,26.876,26.876,0,0,1,11.75,11.751,28.391,28.391,0,0,1,2.632,8,55.838,55.838,0,0,1,.742,8.405q.049,1.929.056,3.86ZM42.77,72.081,48.591,56H44.678L41.29,66.424,37.509,56h-2.96L30.8,66.424,27.413,56H18.741V51.692h-3.65V56H12v3.486h3.091v6.577c0,3.979,2.5,6.248,6.051,6.248a4.7,4.7,0,0,0,1.973-.395l-.2-3.223a4.971,4.971,0,0,1-1.25.2A2.831,2.831,0,0,1,18.741,65.9V59.486h6.02L29.32,72.081h2.894l3.815-10.424,3.815,10.424Zm21.28-8.747a7.6,7.6,0,0,0-7.728-7.662,8.191,8.191,0,0,0-8.287,8.287,8.3,8.3,0,0,0,8.353,8.451c3.321,0,6.018-1.315,7.2-3.486l-2.927-1.874a4.885,4.885,0,0,1-4.209,2.039,4.571,4.571,0,0,1-4.768-4.176H63.918A9.01,9.01,0,0,0,64.05,63.333Zm16.985-.427c0-4.439-2.565-7.235-6.577-7.235a5.839,5.839,0,0,0-4.933,2.5V56h-3.65V72.081h3.65V61.557a4.733,4.733,0,0,1,4.045-2.236c2.269,0,3.782,1.578,3.782,4.176v8.583h3.683ZM97.809,56H88.433V51.692h-3.65V56H81.692v3.486h3.091v6.577c0,3.979,2.5,6.248,6.051,6.248a4.7,4.7,0,0,0,1.973-.395l-.2-3.223a4.97,4.97,0,0,1-1.25.2A2.831,2.831,0,0,1,88.433,65.9V59.486h5.725V72.081h3.65Zm.559-5.13A2.394,2.394,0,0,0,96,48.535a2.351,2.351,0,1,0,2.368,2.335ZM116,55.967h-3.65V58.1a6.2,6.2,0,0,0-5.13-2.433,8.2,8.2,0,0,0,0,16.377,6.285,6.285,0,0,0,5.13-2.433v1.809A4.168,4.168,0,0,1,107.91,75.5a7.656,7.656,0,0,1-5.327-1.907l-1.842,2.532c1.48,1.644,4.505,2.664,7.3,2.664,4.571,0,7.958-2.861,7.958-7.3Z"/></svg>